<?xml version="1.0" encoding="utf-8"?>
<!-- Generator: Adobe Illustrator 16.0.0, SVG Export Plug-In . SVG Version: 6.00 Build 0)  -->
<!DOCTYPE svg PUBLIC "-//W3C//DTD SVG 1.1//EN" "http://www.w3.org/Graphics/SVG/1.1/DTD/svg11.dtd">
<svg version="1.1" id="Layer_1" xmlns="http://www.w3.org/2000/svg" xmlns:xlink="http://www.w3.org/1999/xlink" x="0px" y="0px"
	 width="347.063px" height="218.75px" viewBox="0 0 347.063 218.75" enable-background="new 0 0 347.063 218.75"
	 xml:space="preserve">
<g>
	<rect x="6.561" y="89.922" fill="none" width="328.942" height="34.723"/>
	<path fill="#3E3E3F" d="M9.32,116.681c0.368,1.424,0.936,2.664,1.704,3.72s1.76,1.889,2.976,2.496
		c1.216,0.608,2.704,0.912,4.464,0.912c2.592,0,4.744-0.68,6.456-2.04c1.711-1.36,2.776-3.4,3.192-6.12h0.96
		c-0.353,2.88-1.488,5.112-3.408,6.696s-4.289,2.376-7.104,2.376c-1.92,0.032-3.56-0.272-4.92-0.912
		c-1.36-0.64-2.472-1.544-3.336-2.712c-0.864-1.167-1.505-2.544-1.92-4.128c-0.417-1.584-0.624-3.288-0.624-5.112
		c0-2.047,0.304-3.872,0.912-5.472c0.608-1.6,1.408-2.952,2.4-4.056c0.991-1.104,2.143-1.944,3.456-2.52
		c1.312-0.576,2.656-0.864,4.032-0.864c1.92,0,3.576,0.368,4.968,1.104c1.392,0.736,2.528,1.712,3.408,2.928
		c0.88,1.216,1.52,2.608,1.92,4.176c0.4,1.568,0.568,3.2,0.504,4.896H8.721C8.752,113.713,8.952,115.258,9.32,116.681z
		 M27.776,106.793c-0.416-1.36-1.032-2.552-1.848-3.576c-0.816-1.023-1.833-1.832-3.048-2.424c-1.216-0.592-2.624-0.888-4.224-0.888
		c-1.344,0-2.601,0.256-3.768,0.768c-1.168,0.512-2.192,1.256-3.072,2.232c-0.88,0.977-1.592,2.152-2.136,3.528
		c-0.544,1.376-0.864,2.928-0.96,4.656H28.4C28.4,109.585,28.192,108.154,27.776,106.793z"/>
	<path fill="#3E3E3F" d="M49.953,99.521l-9.024,11.904l9.888,12.768h-1.2l-9.312-12.048l-9.264,12.048h-1.152l9.84-12.768
		l-8.976-11.904H32l8.304,11.184l8.496-11.184H49.953z"/>
	<path fill="#3E3E3F" d="M52.736,132.642v-33.12h0.96v6.912h0.097c0.319-1.088,0.783-2.088,1.392-3
		c0.607-0.912,1.327-1.704,2.16-2.376c0.832-0.672,1.783-1.191,2.855-1.56c1.072-0.368,2.232-0.552,3.48-0.552
		c1.632,0,3.096,0.32,4.392,0.96c1.297,0.641,2.4,1.536,3.312,2.688s1.608,2.513,2.088,4.08c0.48,1.568,0.72,3.281,0.72,5.136
		c0,1.728-0.232,3.376-0.695,4.944c-0.465,1.568-1.137,2.944-2.017,4.128c-0.88,1.184-1.976,2.12-3.288,2.808
		c-1.312,0.688-2.816,1.032-4.512,1.032c-2.624,0-4.784-0.679-6.48-2.04c-1.696-1.359-2.831-3.16-3.407-5.4h-0.097v15.36H52.736z
		 M68.024,122.729c1.2-0.72,2.185-1.648,2.952-2.784c0.769-1.135,1.336-2.416,1.704-3.84c0.367-1.424,0.552-2.856,0.552-4.296
		c0-1.6-0.2-3.112-0.6-4.536c-0.4-1.423-0.992-2.688-1.776-3.792s-1.775-1.976-2.976-2.616c-1.2-0.64-2.601-0.96-4.2-0.96
		c-1.568,0-2.976,0.32-4.224,0.96c-1.248,0.641-2.297,1.504-3.145,2.592s-1.496,2.352-1.943,3.792
		c-0.449,1.44-0.673,2.96-0.673,4.56c0,3.872,0.912,6.84,2.736,8.904s4.24,3.096,7.248,3.096
		C65.376,123.81,66.824,123.449,68.024,122.729z"/>
	<path fill="#3E3E3F" d="M78.632,116.681c0.368,1.424,0.937,2.664,1.704,3.72c0.769,1.056,1.76,1.889,2.977,2.496
		c1.215,0.608,2.703,0.912,4.464,0.912c2.592,0,4.743-0.68,6.456-2.04c1.711-1.36,2.775-3.4,3.191-6.12h0.96
		c-0.353,2.88-1.487,5.112-3.408,6.696c-1.92,1.584-4.288,2.376-7.104,2.376c-1.92,0.032-3.561-0.272-4.92-0.912
		c-1.36-0.64-2.472-1.544-3.336-2.712c-0.864-1.167-1.505-2.544-1.92-4.128c-0.416-1.584-0.624-3.288-0.624-5.112
		c0-2.047,0.304-3.872,0.912-5.472c0.607-1.6,1.407-2.952,2.399-4.056s2.144-1.944,3.456-2.52c1.312-0.576,2.656-0.864,4.032-0.864
		c1.92,0,3.576,0.368,4.968,1.104c1.393,0.736,2.527,1.712,3.408,2.928c0.88,1.216,1.52,2.608,1.92,4.176
		c0.399,1.568,0.567,3.2,0.504,4.896h-20.64C78.063,113.713,78.264,115.258,78.632,116.681z M97.088,106.793
		c-0.416-1.36-1.032-2.552-1.848-3.576c-0.816-1.023-1.832-1.832-3.048-2.424c-1.217-0.592-2.625-0.888-4.225-0.888
		c-1.344,0-2.6,0.256-3.768,0.768c-1.169,0.512-2.192,1.256-3.072,2.232c-0.88,0.977-1.592,2.152-2.136,3.528
		c-0.545,1.376-0.864,2.928-0.96,4.656h19.68C97.712,109.585,97.504,108.154,97.088,106.793z"/>
	<path fill="#3E3E3F" d="M102.512,124.193V99.521h0.96v6.096h0.097c0.224-0.928,0.576-1.8,1.056-2.616
		c0.48-0.816,1.12-1.528,1.92-2.136c0.8-0.607,1.752-1.087,2.856-1.44c1.104-0.352,2.392-0.511,3.863-0.48v0.96
		c-1.696-0.096-3.16,0.137-4.392,0.696c-1.232,0.56-2.248,1.328-3.048,2.304c-0.801,0.977-1.393,2.104-1.776,3.384
		c-0.384,1.28-0.576,2.592-0.576,3.936v13.968H102.512z"/>
	<path fill="#3E3E3F" d="M114.943,94.77v-4.848h0.96v4.848H114.943z M114.943,124.193V99.521h0.96v24.672H114.943z"/>
	<path fill="#3E3E3F" d="M121.303,116.681c0.368,1.424,0.937,2.664,1.704,3.72c0.769,1.056,1.76,1.889,2.977,2.496
		c1.215,0.608,2.703,0.912,4.464,0.912c2.592,0,4.743-0.68,6.456-2.04c1.711-1.36,2.775-3.4,3.191-6.12h0.96
		c-0.353,2.88-1.487,5.112-3.408,6.696c-1.92,1.584-4.288,2.376-7.104,2.376c-1.92,0.032-3.561-0.272-4.92-0.912
		c-1.36-0.64-2.472-1.544-3.336-2.712c-0.864-1.167-1.505-2.544-1.92-4.128c-0.416-1.584-0.624-3.288-0.624-5.112
		c0-2.047,0.304-3.872,0.912-5.472c0.607-1.6,1.407-2.952,2.399-4.056s2.144-1.944,3.456-2.52c1.312-0.576,2.656-0.864,4.032-0.864
		c1.92,0,3.576,0.368,4.968,1.104c1.393,0.736,2.527,1.712,3.408,2.928c0.88,1.216,1.52,2.608,1.92,4.176
		c0.399,1.568,0.567,3.2,0.504,4.896h-20.64C120.734,113.713,120.935,115.258,121.303,116.681z M139.759,106.793
		c-0.416-1.36-1.032-2.552-1.848-3.576c-0.816-1.023-1.832-1.832-3.048-2.424c-1.217-0.592-2.625-0.888-4.225-0.888
		c-1.344,0-2.6,0.256-3.768,0.768c-1.169,0.512-2.192,1.256-3.072,2.232c-0.88,0.977-1.592,2.152-2.136,3.528
		c-0.545,1.376-0.864,2.928-0.96,4.656h19.68C140.383,109.585,140.175,108.154,139.759,106.793z"/>
	<path fill="#3E3E3F" d="M146.143,99.521v6.096h0.097c0.224-0.96,0.583-1.839,1.08-2.64c0.495-0.8,1.119-1.504,1.872-2.112
		c0.751-0.607,1.623-1.08,2.615-1.416s2.096-0.504,3.312-0.504c1.279,0,2.455,0.192,3.527,0.576c1.072,0.384,2,0.952,2.784,1.704
		s1.393,1.68,1.824,2.784s0.648,2.376,0.648,3.816v16.368h-0.96v-16.224c0-1.44-0.209-2.664-0.624-3.672
		c-0.417-1.008-0.984-1.84-1.704-2.496c-0.721-0.655-1.553-1.135-2.496-1.44c-0.944-0.304-1.944-0.456-3-0.456
		c-1.473,0-2.769,0.281-3.888,0.84c-1.121,0.561-2.057,1.312-2.809,2.256c-0.752,0.944-1.32,2.04-1.704,3.288
		s-0.576,2.561-0.576,3.936v13.968h-0.96V99.521H146.143z"/>
	<path fill="#3E3E3F" d="M188.047,119.513c-0.544,1.104-1.256,2.04-2.136,2.808c-0.881,0.768-1.904,1.36-3.072,1.776
		s-2.456,0.624-3.864,0.624c-1.76,0-3.32-0.328-4.68-0.984c-1.36-0.655-2.504-1.543-3.432-2.664
		c-0.929-1.12-1.632-2.424-2.112-3.912c-0.48-1.488-0.72-3.079-0.72-4.776c0-1.792,0.231-3.496,0.695-5.112
		c0.464-1.616,1.168-3.04,2.112-4.272c0.943-1.231,2.144-2.216,3.601-2.952c1.455-0.736,3.159-1.104,5.111-1.104
		c1.152,0,2.256,0.176,3.312,0.528c1.056,0.353,1.999,0.864,2.832,1.536c0.831,0.672,1.527,1.512,2.088,2.52
		c0.56,1.008,0.919,2.168,1.08,3.48h-0.96c-0.192-1.216-0.545-2.263-1.057-3.144c-0.512-0.879-1.136-1.615-1.872-2.208
		c-0.736-0.592-1.568-1.032-2.496-1.32s-1.903-0.432-2.928-0.432c-1.952,0-3.608,0.376-4.968,1.128
		c-1.36,0.752-2.448,1.728-3.264,2.928c-0.816,1.2-1.409,2.544-1.776,4.032c-0.368,1.488-0.552,2.952-0.552,4.392
		c0,1.504,0.216,2.945,0.647,4.32c0.433,1.376,1.063,2.592,1.896,3.648c0.832,1.056,1.872,1.896,3.12,2.52s2.688,0.936,4.319,0.936
		c1.216,0,2.353-0.184,3.408-0.552c1.057-0.368,1.992-0.904,2.809-1.608c0.815-0.704,1.479-1.543,1.991-2.52
		c0.512-0.976,0.816-2.088,0.912-3.336h0.96C188.927,117.169,188.591,118.409,188.047,119.513z"/>
	<path fill="#3E3E3F" d="M193.183,94.77v-4.848h0.96v4.848H193.183z M193.183,124.193V99.521h0.96v24.672H193.183z"/>
	<path fill="#3E3E3F" d="M200.094,103.914c0.416-1.008,1.016-1.88,1.801-2.616c0.783-0.736,1.743-1.312,2.88-1.728
		c1.136-0.416,2.472-0.624,4.008-0.624c1.088,0,2.119,0.112,3.096,0.336c0.976,0.224,1.832,0.617,2.568,1.176
		c0.735,0.56,1.327,1.289,1.776,2.184c0.447,0.896,0.688,2.016,0.72,3.36v15.696c0,0.48,0.096,0.833,0.288,1.056
		c0.191,0.224,0.447,0.376,0.768,0.456c0.319,0.08,0.664,0.112,1.032,0.096c0.367-0.016,0.712-0.04,1.032-0.072v0.96h-1.44
		c-0.704,0-1.32-0.168-1.848-0.504c-0.528-0.336-0.792-0.968-0.792-1.896v-3.216h-0.097c-0.256,0.8-0.664,1.568-1.224,2.304
		c-0.561,0.736-1.265,1.392-2.112,1.968c-0.848,0.576-1.816,1.032-2.903,1.368c-1.089,0.336-2.272,0.504-3.553,0.504
		c-2.495,0-4.496-0.552-6-1.656s-2.256-2.76-2.256-4.968c0-1.536,0.248-2.767,0.744-3.696c0.496-0.928,1.144-1.656,1.944-2.184
		c0.8-0.528,1.711-0.896,2.736-1.104c1.023-0.208,2.047-0.343,3.071-0.408c1.696-0.096,3.151-0.184,4.368-0.264
		c1.216-0.08,2.216-0.24,3-0.48c0.784-0.24,1.359-0.607,1.729-1.104c0.367-0.496,0.552-1.208,0.552-2.136
		c0-0.735-0.064-1.503-0.192-2.304c-0.128-0.8-0.44-1.536-0.936-2.208c-0.497-0.672-1.225-1.224-2.185-1.656
		c-0.96-0.432-2.256-0.648-3.888-0.648c-2.592,0-4.608,0.632-6.048,1.896c-1.44,1.265-2.24,3.048-2.4,5.352h-0.96
		C199.438,106.001,199.678,104.921,200.094,103.914z M215.886,109.697c-0.319,0.449-0.815,0.792-1.487,1.032
		c-0.672,0.24-1.44,0.424-2.305,0.552c-0.863,0.128-1.8,0.208-2.808,0.24c-1.008,0.032-1.992,0.08-2.952,0.144
		c-0.96,0.064-1.896,0.185-2.808,0.36c-0.912,0.176-1.721,0.497-2.424,0.96c-0.704,0.464-1.265,1.104-1.681,1.92
		s-0.624,1.88-0.624,3.192c0,0.705,0.12,1.4,0.36,2.088c0.24,0.688,0.648,1.296,1.224,1.824c0.576,0.528,1.32,0.96,2.232,1.296
		c0.912,0.336,2.04,0.504,3.384,0.504c1.6,0,3.024-0.271,4.272-0.816c1.248-0.543,2.296-1.255,3.144-2.136
		c0.848-0.88,1.488-1.896,1.92-3.048c0.433-1.152,0.648-2.336,0.648-3.552v-4.56H215.886z"/>
	<path fill="#3E3E3F" d="M246.509,104.177c0.832-0.063,1.608-0.248,2.328-0.552c0.72-0.304,1.312-0.744,1.776-1.32
		c0.463-0.576,0.695-1.344,0.695-2.304c0-1.44-0.479-2.544-1.439-3.312s-2.064-1.152-3.312-1.152c-1.728,0-3.032,0.568-3.912,1.704
		c-0.88,1.136-1.304,2.568-1.271,4.296h-6.48c0.064-1.728,0.376-3.304,0.937-4.728c0.56-1.424,1.344-2.648,2.352-3.672
		c1.008-1.023,2.216-1.815,3.624-2.376c1.408-0.56,2.977-0.84,4.704-0.84c1.344,0,2.688,0.2,4.032,0.6c1.344,0.4,2.552,1,3.624,1.8
		c1.071,0.8,1.944,1.776,2.616,2.928c0.672,1.152,1.008,2.48,1.008,3.984c0,1.632-0.393,3.072-1.176,4.32
		c-0.785,1.248-1.961,2.096-3.528,2.544v0.096c1.855,0.416,3.312,1.312,4.368,2.688c1.056,1.376,1.584,3.024,1.584,4.944
		c0,1.76-0.345,3.329-1.032,4.704c-0.688,1.376-1.608,2.528-2.76,3.456c-1.152,0.929-2.48,1.632-3.984,2.112s-3.072,0.72-4.704,0.72
		c-1.889,0-3.608-0.272-5.16-0.816c-1.552-0.544-2.872-1.336-3.96-2.376c-1.088-1.04-1.928-2.312-2.52-3.816
		c-0.593-1.504-0.872-3.232-0.84-5.184h6.479c0.032,0.896,0.176,1.752,0.433,2.568c0.256,0.816,0.624,1.52,1.104,2.112
		c0.48,0.593,1.08,1.064,1.8,1.416c0.721,0.353,1.576,0.528,2.568,0.528c1.536,0,2.832-0.472,3.888-1.416
		c1.057-0.944,1.584-2.232,1.584-3.864c0-1.279-0.248-2.256-0.744-2.928c-0.496-0.672-1.128-1.16-1.896-1.464
		c-0.769-0.304-1.608-0.48-2.521-0.528c-0.911-0.048-1.784-0.072-2.615-0.072v-4.8C244.893,104.242,245.677,104.242,246.509,104.177
		z"/>
	<path fill="#3E3E3F" d="M276.988,96.305c-0.8-0.832-1.792-1.248-2.976-1.248c-1.217,0-2.232,0.36-3.048,1.08
		c-0.816,0.72-1.465,1.601-1.944,2.64c-0.48,1.04-0.833,2.152-1.056,3.336c-0.225,1.185-0.353,2.24-0.385,3.168l0.097,0.096
		c0.928-1.344,2.016-2.304,3.264-2.88c1.248-0.576,2.688-0.864,4.32-0.864c1.439,0,2.848,0.312,4.224,0.936s2.544,1.464,3.504,2.52
		c0.896,1.024,1.552,2.192,1.968,3.504c0.416,1.312,0.624,2.64,0.624,3.984c0,1.728-0.28,3.336-0.84,4.824
		c-0.561,1.488-1.36,2.784-2.399,3.888c-1.041,1.104-2.28,1.968-3.721,2.592c-1.439,0.624-3.04,0.936-4.8,0.936
		c-2.528,0-4.624-0.504-6.288-1.512c-1.664-1.008-2.992-2.328-3.983-3.96c-0.993-1.632-1.681-3.48-2.064-5.544
		s-0.576-4.167-0.576-6.312c0-2.08,0.24-4.159,0.72-6.24c0.48-2.08,1.248-3.96,2.305-5.64c1.056-1.68,2.415-3.048,4.08-4.104
		c1.663-1.056,3.695-1.584,6.096-1.584c1.44,0,2.784,0.208,4.032,0.624c1.248,0.416,2.352,1.016,3.312,1.8
		c0.96,0.785,1.744,1.752,2.353,2.904c0.607,1.152,1.008,2.48,1.199,3.984h-6.479C278.3,98.114,277.788,97.138,276.988,96.305z
		 M271.252,107.273c-0.688,0.336-1.256,0.792-1.703,1.368c-0.449,0.576-0.785,1.24-1.009,1.992
		c-0.224,0.752-0.336,1.544-0.336,2.376c0,0.768,0.12,1.529,0.36,2.28c0.24,0.752,0.592,1.424,1.056,2.016
		c0.464,0.593,1.032,1.064,1.704,1.416c0.672,0.353,1.44,0.528,2.304,0.528c0.832,0,1.561-0.176,2.185-0.528
		c0.624-0.352,1.159-0.816,1.607-1.392c0.448-0.576,0.784-1.232,1.009-1.968c0.224-0.736,0.336-1.488,0.336-2.256
		c0-0.8-0.104-1.576-0.312-2.328c-0.208-0.751-0.521-1.423-0.936-2.016c-0.416-0.592-0.953-1.072-1.608-1.44
		c-0.656-0.367-1.416-0.552-2.28-0.552C272.732,106.77,271.94,106.938,271.252,107.273z"/>
	<path fill="#3E3E3F" d="M288.58,99.018c0.655-2.224,1.543-4.008,2.664-5.352c1.119-1.344,2.424-2.304,3.912-2.88
		c1.487-0.576,3.063-0.864,4.728-0.864c1.696,0,3.288,0.288,4.776,0.864c1.487,0.576,2.8,1.536,3.936,2.88
		c1.136,1.344,2.032,3.128,2.688,5.352c0.655,2.224,0.983,4.968,0.983,8.232c0,3.36-0.328,6.168-0.983,8.424
		c-0.656,2.256-1.553,4.056-2.688,5.4c-1.136,1.344-2.448,2.304-3.936,2.88c-1.488,0.576-3.08,0.864-4.776,0.864
		c-1.664,0-3.24-0.288-4.728-0.864c-1.488-0.576-2.793-1.536-3.912-2.88c-1.121-1.344-2.009-3.144-2.664-5.4
		c-0.656-2.256-0.984-5.064-0.984-8.424C287.596,103.985,287.924,101.242,288.58,99.018z M294.508,110.729
		c0.063,1.36,0.264,2.672,0.6,3.936c0.337,1.264,0.872,2.344,1.608,3.24c0.735,0.896,1.792,1.344,3.168,1.344
		c1.408,0,2.488-0.448,3.24-1.344c0.751-0.896,1.296-1.976,1.632-3.24s0.535-2.576,0.6-3.936c0.064-1.36,0.097-2.52,0.097-3.48
		c0-0.576-0.009-1.272-0.024-2.088c-0.017-0.816-0.08-1.656-0.191-2.52c-0.113-0.864-0.272-1.72-0.48-2.568
		c-0.208-0.847-0.521-1.608-0.936-2.28c-0.417-0.672-0.944-1.216-1.584-1.632c-0.641-0.415-1.425-0.624-2.353-0.624
		c-0.929,0-1.704,0.208-2.328,0.624c-0.624,0.417-1.136,0.96-1.536,1.632s-0.712,1.433-0.936,2.28
		c-0.225,0.848-0.384,1.704-0.48,2.568c-0.096,0.864-0.152,1.704-0.168,2.52c-0.017,0.816-0.023,1.512-0.023,2.088
		C294.412,108.209,294.443,109.37,294.508,110.729z"/>
	<path fill="#3E3E3F" d="M325.947,90.761c0.991,0.4,1.824,0.96,2.496,1.68c0.672,0.72,1.184,1.568,1.536,2.544
		c0.352,0.977,0.528,2.024,0.528,3.144c0,2.304-0.673,4.184-2.017,5.64c-1.344,1.457-3.328,2.184-5.952,2.184
		c-1.28,0-2.416-0.192-3.407-0.576c-0.993-0.384-1.833-0.928-2.521-1.632c-0.688-0.703-1.217-1.527-1.584-2.472
		c-0.368-0.943-0.552-1.992-0.552-3.144c0-1.12,0.176-2.16,0.527-3.12c0.353-0.96,0.864-1.8,1.536-2.52
		c0.672-0.72,1.513-1.288,2.521-1.704c1.008-0.416,2.151-0.624,3.432-0.624C323.803,90.161,324.955,90.362,325.947,90.761z
		 M319.107,93.905c-0.912,0.896-1.368,2.304-1.368,4.224c0,0.704,0.088,1.384,0.264,2.04c0.176,0.656,0.456,1.24,0.841,1.752
		c0.384,0.512,0.879,0.912,1.487,1.2c0.607,0.288,1.345,0.432,2.208,0.432c0.864,0,1.592-0.144,2.185-0.432
		c0.592-0.288,1.071-0.68,1.439-1.176c0.368-0.496,0.64-1.072,0.816-1.728c0.176-0.655,0.264-1.335,0.264-2.04
		c0-1.152-0.152-2.095-0.456-2.832c-0.305-0.736-0.688-1.312-1.151-1.728c-0.465-0.416-0.977-0.696-1.536-0.84
		c-0.561-0.144-1.097-0.216-1.608-0.216C321.147,92.562,320.02,93.01,319.107,93.905z"/>
</g>
<g>
	<polygon fill="#003DA6" points="154.021,52.689 152.213,47.813 149.519,51.873 151.015,57.566 156.495,56.754 159.119,52.777 	"/>
	<polygon fill="#77BC1F" points="149.126,60.875 147.329,55.406 144.733,60.135 146.763,65.518 152.052,64.506 154.676,59.727 	"/>
	<polygon fill="#FFC627" points="145.302,68.701 142.962,63.715 140.843,68.523 143.388,73.372 148.702,71.805 150.648,67.359 	"/>
	<polygon fill="#E63C2F" points="142.201,76.736 139.75,71.416 138.027,76.239 140.657,81.406 146.011,79.268 147.464,75.019 	"/>
	<g>
		<defs>
			<polygon id="SVGID_1_" points="160.339,51.169 155.118,51.169 153.476,46.144 149.705,22.75 209.063,0 250.563,0 287.313,11 
				320.563,33.75 338.313,57.566 347.063,103.25 343.313,137.75 332.828,164.803 317.563,185.25 300.563,204 277.813,210 
				255.063,216.25 194.063,218.75 177.063,209.5 164.563,195 147.563,167.75 136.04,153.25 130.313,135.5 123.313,119.926 
				126.563,103 130.313,86 157.187,84.587 168.063,55.406 			"/>
		</defs>
		<clipPath id="SVGID_2_">
			<use xlink:href="#SVGID_1_"  overflow="visible"/>
		</clipPath>
		<path clip-path="url(#SVGID_2_)" fill="#009D86" d="M141.089,133.166c1.287,0,2.551-0.098,3.787-0.279
			c10.949,40.672,48.082,70.609,92.212,70.609c52.741,0,95.495-42.756,95.495-95.496s-42.754-95.495-95.495-95.495
			c-43.706,0-80.554,29.362-91.896,69.437c-1.336-0.215-2.707-0.33-4.104-0.33c-1.619,0-3.201,0.156-4.738,0.442
			C147.878,37.171,188.608,4,237.088,4c57.438,0,104,46.562,104,104s-46.562,104-104,104c-48.937,0-89.972-33.803-101.048-79.332
			C137.673,132.992,139.36,133.166,141.089,133.166z"/>
	</g>
</g>
<g>
</g>
<g>
</g>
<g>
</g>
<g>
</g>
<g>
</g>
<g>
</g>
</svg>
